<svg width="224" height="179" viewBox="0 0 224 179" fill="none" xmlns="http://www.w3.org/2000/svg">
<mask id="path-1-inside-1_206_189" fill="white">
<path d="M184 124C234.55 100.263 182.745 157.777 198.105 189H-20V32.5C-20 32.5 2.86215 71.0557 40.5001 47.5C114 1.5 129 83 106 103.5C82.4524 124.488 147.255 141.254 184 124Z"/>
</mask>
<path d="M198.105 189V689H1001.29L646.759 -31.7025L198.105 189ZM184 124L396.521 576.587H396.521L184 124ZM106 103.5L-226.685 -269.757L106 103.5ZM40.5001 47.5L-224.759 -376.337H-224.759L40.5001 47.5ZM-20 32.5L410.076 -222.519L-520 -1791.04V32.5H-20ZM-20 189H-520V689H-20V189ZM646.759 -31.7025C717.063 111.216 691.502 237.29 686.572 261.623C681.966 284.355 668.542 327.117 682.134 282.946C683.864 277.326 697.878 234 703.753 179.436C706.704 152.031 732.162 -57.13 562.409 -230.281C378.802 -417.564 152.82 -381.333 107.59 -372.971C40.4284 -360.554 -10.4656 -337.065 -28.5214 -328.587L396.521 576.587C391.103 579.131 349.648 599.224 289.389 610.365C251.061 617.451 29.4461 654.526 -151.67 469.784C-237.73 382.001 -271.802 283.364 -284.691 215.305C-296.925 150.702 -293.315 98.5225 -290.499 72.3692C-287.434 43.9147 -282.468 22.1157 -279.852 11.4459C-277.03 -0.0641022 -274.462 -8.48314 -273.636 -11.1665C-264.757 -40.023 -285.093 21.4886 -293.513 63.044C-302.257 106.201 -328.534 251.172 -250.549 409.703L646.759 -31.7025ZM-28.5214 -328.587C85.1284 -381.953 185.002 -372.315 248.644 -355.706C264.919 -351.459 394.493 -320.593 496.434 -190.686C562.149 -106.945 621.883 29.4477 594.138 194.163C568.994 343.442 484.88 435.583 438.685 476.757L-226.685 -269.757C-278.767 -223.336 -366.007 -126.08 -391.971 28.0656C-420.535 197.648 -359.314 338.659 -290.262 426.654C-181.645 565.068 -37.9888 602.983 -3.86362 611.888C95.4794 637.813 246.126 647.208 396.521 576.587L-28.5214 -328.587ZM438.685 476.757C578.015 352.571 608.913 196.363 614.608 114.211C621.125 20.1938 604.357 -93.7142 540.928 -202.056C470.405 -322.515 337.578 -437.203 149.966 -461.797C-18.7589 -483.916 -151.458 -422.212 -224.759 -376.337L305.759 471.337C269.208 494.212 165.947 548.853 19.987 529.719C-144.859 508.109 -261.592 406.452 -322.053 303.181C-375.419 212.027 -388.156 119.462 -382.998 45.0544C-378.663 -17.488 -354.515 -155.821 -226.685 -269.757L438.685 476.757ZM-224.759 -376.337C-159.315 -417.295 -69.4765 -448.757 35.463 -444.494C136.427 -440.393 215.161 -404.748 266.392 -371.834C315.727 -340.139 348.266 -305.722 366.762 -283.738C376.833 -271.768 385.193 -260.538 392.032 -250.668C395.502 -245.66 398.715 -240.808 401.687 -236.153C403.177 -233.819 404.619 -231.516 406.013 -229.248C406.711 -228.113 407.398 -226.985 408.075 -225.864C408.413 -225.304 408.749 -224.745 409.082 -224.187C409.249 -223.909 409.415 -223.63 409.581 -223.352C409.663 -223.213 409.788 -223.005 409.829 -222.936C409.952 -222.728 410.076 -222.519 -20 32.5C-450.076 287.519 -449.952 287.728 -449.828 287.936C-449.787 288.006 -449.662 288.216 -449.579 288.356C-449.412 288.636 -449.243 288.918 -449.074 289.201C-448.735 289.768 -448.391 290.341 -448.041 290.92C-447.342 292.078 -446.622 293.261 -445.88 294.468C-444.397 296.88 -442.822 299.397 -441.155 302.008C-437.83 307.216 -434.089 312.873 -429.92 318.889C-421.684 330.775 -411.243 344.834 -398.441 360.051C-374.482 388.528 -333.876 431.112 -274.121 469.501C-212.469 509.109 -120.962 549.976 -5.12616 554.682C114.686 559.549 221.496 524.073 305.759 471.337L-224.759 -376.337ZM-520 32.5V189H480V32.5H-520ZM-20 689H198.105V-311H-20V689Z" fill="#597E61" mask="url(#path-1-inside-1_206_189)"/>
<mask id="path-3-inside-2_206_189" fill="white">
<path d="M218.826 162.326C225.938 170.479 224.621 181.989 221.383 189H220.871H-20V82.8151C1.47896 76.6594 -16.4201 57.6795 1.47896 35.1088C6.77753 28.4273 15.9982 -3.10376 38.5 1C61.0018 5.10376 48.6026 55.7925 44 64C26.8961 94.5 66.6767 109.843 82.5 106C117.5 97.5 123 113.5 158.5 113.5C183.559 113.5 204.506 145.91 218.826 162.326Z"/>
</mask>
<path d="M221.383 189V1189H860.947L1129.18 608.403L221.383 189ZM218.826 162.326L972.401 -495.035L972.401 -495.035L218.826 162.326ZM82.5 106L-153.497 -865.754L-153.497 -865.754L82.5 106ZM44 64L916.215 553.123L916.215 553.122L44 64ZM1.47896 35.1088L-782.05 -586.246L-782.051 -586.246L1.47896 35.1088ZM-20 82.8151L-295.499 -878.486L-1020 -670.852V82.8151H-20ZM-20 189H-1020V1189H-20V189ZM1129.18 608.403C1218.58 414.896 1343.45 -69.6829 972.401 -495.035L-534.75 819.686C-713.578 614.685 -769.837 382.492 -775.487 208.557C-780.828 44.1436 -744.235 -105.256 -686.418 -230.403L1129.18 608.403ZM972.401 -495.035C982.54 -483.413 1006.08 -454.582 981.243 -484.974C970.971 -497.544 940.917 -534.248 899.635 -575.511C860.165 -614.964 785.154 -684.513 676.194 -747.372C563.787 -812.22 385.936 -886.5 158.5 -886.5V1113.5C-56.4064 1113.5 -222.242 1043.27 -323.226 985.013C-420.763 928.744 -484.944 868.324 -514.255 839.026C-545.378 807.917 -565.944 782.393 -567.477 780.517C-583.573 760.819 -552.049 799.856 -534.75 819.686L972.401 -495.035ZM158.5 -886.5C230.068 -886.5 297.06 -877.805 356.831 -864.308C383.309 -858.329 403.399 -852.501 411.083 -850.234C414.036 -849.362 417.125 -848.422 413.899 -849.399C412.365 -849.863 405.561 -851.929 397.368 -854.291C359.862 -865.106 271.049 -889.219 154.93 -895.124C38.0198 -901.068 -66.2233 -886.949 -153.497 -865.754L318.497 1077.75C248.723 1094.7 158.293 1107.63 53.3666 1102.3C-50.7677 1097 -129.425 1075.29 -156.743 1067.42C-162.389 1065.79 -166.644 1064.49 -165.598 1064.81C-165.119 1064.95 -165.592 1064.81 -164.707 1065.08C-164.233 1065.22 -163.482 1065.45 -162.611 1065.71C-160.884 1066.23 -158.173 1067.05 -154.921 1068.01C-141.895 1071.85 -116.223 1079.23 -83.6906 1086.57C-11.8097 1102.8 69.1823 1113.5 158.5 1113.5V-886.5ZM-153.497 -865.754C50.431 -915.279 217.032 -887.281 302.327 -866.666C403.175 -842.293 523.371 -795.621 641.844 -708.836C759.74 -622.473 928.847 -455.05 1004.22 -183.225C1085.73 110.745 1016.01 375.159 916.215 553.123L-828.215 -425.123C-936.566 -231.909 -1007.72 45.8604 -923.068 351.165C-844.554 634.325 -667.72 811.063 -540.04 904.593C-411.781 998.546 -279.742 1050.24 -167.52 1077.36C-70.8503 1100.73 106.657 1129.2 318.497 1077.75L-153.497 -865.754ZM916.215 553.122C988.507 424.209 1015.53 305.588 1019.7 288.517C1031.98 238.236 1044.77 170.775 1049.58 91.5341C1053.29 30.3409 1059.43 -132.114 992.282 -321.988C912.879 -546.517 684.772 -897.63 217.916 -982.773L-140.916 984.773C-596.522 901.682 -817.739 558.444 -893.283 344.83C-956.571 165.87 -949.601 17.3702 -946.75 -29.612C-942.803 -94.6415 -932.566 -147.635 -923.203 -185.975C-921.95 -191.106 -898.206 -300.313 -828.215 -425.122L916.215 553.122ZM217.916 -982.773C-49.1412 -1031.48 -299.613 -969.151 -493.039 -852.323C-661.968 -750.291 -759.949 -624.395 -803.971 -561.906C-850.458 -495.918 -879.722 -437.281 -883.835 -429.247C-891.177 -414.901 -882.675 -431.624 -877.069 -442.049C-875.803 -444.404 -841.083 -511.806 -782.05 -586.246L785.008 656.464C845.365 580.354 881.532 510.505 884.405 505.162C891.617 491.75 901.885 471.5 896.504 482.014C896.314 482.385 871.754 532.143 831.047 589.926C792.806 644.209 701.68 762.575 540.975 859.64C355.772 971.501 114.89 1031.43 -140.916 984.773L217.916 -982.773ZM-782.051 -586.246C-886.68 -454.308 -948.861 -310.942 -980.403 -175.351C-1006.12 -64.7797 -1008.19 43.4501 -1006.48 11.5114C-1006.41 10.125 -1004.35 -39.0963 -993.7 -100.351C-982.223 -166.356 -956.142 -276.991 -889.591 -399.977C-818.741 -530.907 -719.019 -644.489 -597.736 -731.764C-483.51 -813.961 -373.543 -856.12 -295.499 -878.486L255.499 1044.12C338.913 1020.21 453.019 976.113 570.447 891.611C694.933 802.031 796.92 685.781 869.392 551.853C937.565 425.869 964.625 311.908 976.731 242.284C988.012 177.411 990.346 124.278 990.644 118.724C992.806 78.4493 990.959 177.317 967.587 277.79C938.395 403.282 880.688 535.811 785.009 656.463L-782.051 -586.246ZM-1020 82.8151V189H980V82.8151H-1020ZM-20 1189H220.871V-811H-20V1189ZM220.871 1189H221.383V-811H220.871V1189Z" fill="#597E61" fill-opacity="0.59" mask="url(#path-3-inside-2_206_189)"/>
</svg>
