<svg width="185" height="165" viewBox="0 0 185 165" fill="none" xmlns="http://www.w3.org/2000/svg">
<g filter="url(#filter0_d_247_276)">
<path d="M7 147.5L7 64M84.5 3H15.5C13 3 11.2888 3.71108 9.5 5.5C7.50014 7.5 6.99986 12 7 15L7 64M7 64H64" stroke="white" stroke-width="6"/>
</g>
<g filter="url(#filter1_d_247_276)">
<path d="M19.5 17.5C19.5 17.5 22.5 17.5 23 18.5C23.5 19.5 23.5 21 23.5 21V48.5C23.5 48.5 23.5 50.5 23 51C22.3675 51.6325 19.5 51.5 19 51.5" stroke="white" stroke-width="4"/>
</g>
<g filter="url(#filter2_d_247_276)">
<path d="M19.5 79.5C19.5 79.5 22.5 79.5 23 80.5C23.5 81.5 23.5 83 23.5 83V110.5C23.5 110.5 23.5 112.5 23 113C22.3675 113.632 19.5 113.5 19 113.5" stroke="white" stroke-width="4"/>
</g>
<path d="M41.6761 147V103.364H46.5909V110.068H46.9602C47.8314 107.871 49.3466 106.1 51.5057 104.756C53.6837 103.392 56.1458 102.71 58.892 102.71C59.3087 102.71 59.7727 102.72 60.2841 102.739C60.7955 102.758 61.2216 102.777 61.5625 102.795V107.938C61.3352 107.9 60.9375 107.843 60.3693 107.767C59.8011 107.691 59.1856 107.653 58.5227 107.653C56.25 107.653 54.2235 108.136 52.4432 109.102C50.6818 110.049 49.2898 111.366 48.267 113.051C47.2443 114.737 46.733 116.659 46.733 118.818V147H41.6761ZM70.2486 147V103.364H75.3338V147H70.2486ZM72.8338 95.8636C71.7921 95.8636 70.902 95.5133 70.1634 94.8125C69.4247 94.0928 69.0554 93.2311 69.0554 92.2273C69.0554 91.2235 69.4247 90.3712 70.1634 89.6705C70.902 88.9508 71.7921 88.5909 72.8338 88.5909C73.8755 88.5909 74.7656 88.9508 75.5043 89.6705C76.2429 90.3712 76.6122 91.2235 76.6122 92.2273C76.6122 93.2311 76.2429 94.0928 75.5043 94.8125C74.7656 95.5133 73.8755 95.8636 72.8338 95.8636ZM105.355 164.273C102.382 164.273 99.7775 163.884 97.5426 163.108C95.3078 162.35 93.4233 161.309 91.8892 159.983C90.3551 158.657 89.1619 157.17 88.3097 155.523L92.4574 152.795C93.0824 153.894 93.9157 154.973 94.9574 156.034C96.018 157.095 97.3911 157.975 99.0767 158.676C100.781 159.377 102.874 159.727 105.355 159.727C109.219 159.727 112.334 158.761 114.702 156.83C117.088 154.898 118.281 151.896 118.281 147.824V137.994H117.827C117.24 139.32 116.397 140.646 115.298 141.972C114.2 143.278 112.76 144.367 110.98 145.239C109.219 146.11 107.031 146.545 104.418 146.545C100.933 146.545 97.8362 145.684 95.1278 143.96C92.4384 142.237 90.3172 139.775 88.7642 136.574C87.2301 133.354 86.4631 129.519 86.4631 125.068C86.4631 120.655 87.2112 116.773 88.7074 113.42C90.2225 110.068 92.3343 107.455 95.0426 105.58C97.7509 103.705 100.904 102.767 104.503 102.767C107.173 102.767 109.389 103.241 111.151 104.188C112.912 105.116 114.323 106.271 115.384 107.653C116.463 109.036 117.306 110.381 117.912 111.688H118.423V103.364H123.366V148.136C123.366 151.83 122.58 154.869 121.009 157.256C119.437 159.642 117.296 161.403 114.588 162.54C111.88 163.695 108.802 164.273 105.355 164.273ZM105.014 141.915C107.817 141.915 110.213 141.242 112.202 139.898C114.19 138.534 115.715 136.583 116.776 134.045C117.836 131.508 118.366 128.487 118.366 124.983C118.366 121.574 117.846 118.553 116.804 115.92C115.762 113.269 114.247 111.186 112.259 109.67C110.289 108.136 107.874 107.369 105.014 107.369C102.098 107.369 99.6354 108.155 97.6278 109.727C95.6203 111.299 94.1051 113.42 93.0824 116.091C92.0597 118.742 91.5483 121.706 91.5483 124.983C91.5483 128.316 92.0691 131.261 93.1108 133.818C94.1525 136.356 95.6771 138.345 97.6847 139.784C99.6922 141.205 102.135 141.915 105.014 141.915ZM141.357 88.8182V93.9318C141.357 95.4848 141.072 97.142 140.504 98.9034C139.955 100.646 139.141 102.341 138.061 103.989C137 105.617 135.713 107.038 134.197 108.25L131.442 105.835C132.862 104.169 134.065 102.322 135.05 100.295C136.035 98.25 136.527 96.1572 136.527 94.017V88.8182H141.357ZM174.041 112.938L169.411 114.244C168.956 112.937 168.312 111.754 167.479 110.693C166.645 109.633 165.556 108.79 164.212 108.165C162.886 107.54 161.238 107.227 159.268 107.227C156.314 107.227 153.89 107.928 151.996 109.33C150.102 110.731 149.155 112.54 149.155 114.756C149.155 116.631 149.799 118.155 151.087 119.33C152.393 120.485 154.401 121.403 157.109 122.085L163.7 123.705C167.356 124.595 170.092 126.006 171.911 127.938C173.748 129.869 174.666 132.294 174.666 135.21C174.666 137.672 173.984 139.86 172.621 141.773C171.257 143.686 169.354 145.191 166.911 146.29C164.486 147.369 161.674 147.909 158.473 147.909C154.212 147.909 150.698 146.953 147.933 145.04C145.168 143.108 143.397 140.324 142.621 136.688L147.479 135.494C148.104 138.089 149.325 140.049 151.143 141.375C152.981 142.701 155.395 143.364 158.388 143.364C161.74 143.364 164.42 142.616 166.428 141.119C168.435 139.604 169.439 137.71 169.439 135.438C169.439 133.676 168.852 132.199 167.678 131.006C166.503 129.794 164.723 128.903 162.337 128.335L155.206 126.631C151.418 125.722 148.615 124.282 146.797 122.312C144.979 120.343 144.07 117.9 144.07 114.983C144.07 112.578 144.723 110.466 146.03 108.648C147.337 106.811 149.136 105.371 151.428 104.33C153.719 103.288 156.333 102.767 159.268 102.767C163.265 102.767 166.456 103.676 168.842 105.494C171.248 107.294 172.981 109.775 174.041 112.938Z" fill="#1E1E1E"/>
<defs>
<filter id="filter0_d_247_276" x="0" y="0" width="88.5" height="155.5" filterUnits="userSpaceOnUse" color-interpolation-filters="sRGB">
<feFlood flood-opacity="0" result="BackgroundImageFix"/>
<feColorMatrix in="SourceAlpha" type="matrix" values="0 0 0 0 0 0 0 0 0 0 0 0 0 0 0 0 0 0 127 0" result="hardAlpha"/>
<feOffset dy="4"/>
<feGaussianBlur stdDeviation="2"/>
<feComposite in2="hardAlpha" operator="out"/>
<feColorMatrix type="matrix" values="0 0 0 0 0 0 0 0 0 0 0 0 0 0 0 0 0 0 0.25 0"/>
<feBlend mode="normal" in2="BackgroundImageFix" result="effect1_dropShadow_247_276"/>
<feBlend mode="normal" in="SourceGraphic" in2="effect1_dropShadow_247_276" result="shape"/>
</filter>
<filter id="filter1_d_247_276" x="15" y="15.5" width="14.5" height="46.0113" filterUnits="userSpaceOnUse" color-interpolation-filters="sRGB">
<feFlood flood-opacity="0" result="BackgroundImageFix"/>
<feColorMatrix in="SourceAlpha" type="matrix" values="0 0 0 0 0 0 0 0 0 0 0 0 0 0 0 0 0 0 127 0" result="hardAlpha"/>
<feOffset dy="4"/>
<feGaussianBlur stdDeviation="2"/>
<feComposite in2="hardAlpha" operator="out"/>
<feColorMatrix type="matrix" values="0 0 0 0 0 0 0 0 0 0 0 0 0 0 0 0 0 0 0.25 0"/>
<feBlend mode="normal" in2="BackgroundImageFix" result="effect1_dropShadow_247_276"/>
<feBlend mode="normal" in="SourceGraphic" in2="effect1_dropShadow_247_276" result="shape"/>
</filter>
<filter id="filter2_d_247_276" x="15" y="77.5" width="14.5" height="46.0113" filterUnits="userSpaceOnUse" color-interpolation-filters="sRGB">
<feFlood flood-opacity="0" result="BackgroundImageFix"/>
<feColorMatrix in="SourceAlpha" type="matrix" values="0 0 0 0 0 0 0 0 0 0 0 0 0 0 0 0 0 0 127 0" result="hardAlpha"/>
<feOffset dy="4"/>
<feGaussianBlur stdDeviation="2"/>
<feComposite in2="hardAlpha" operator="out"/>
<feColorMatrix type="matrix" values="0 0 0 0 0 0 0 0 0 0 0 0 0 0 0 0 0 0 0.25 0"/>
<feBlend mode="normal" in2="BackgroundImageFix" result="effect1_dropShadow_247_276"/>
<feBlend mode="normal" in="SourceGraphic" in2="effect1_dropShadow_247_276" result="shape"/>
</filter>
</defs>
</svg>
