<svg width="239" height="164" viewBox="0 0 239 164" fill="none" xmlns="http://www.w3.org/2000/svg">
<mask id="path-1-inside-1_206_188" fill="white">
<path d="M40.9999 74C-13.1462 67.4651 40.9998 30.5 26 0H239V114C239 114 236.951 152.156 194.5 161C110.5 178.5 210.426 83.0663 133 65C103 58 70 77.5 40.9999 74Z"/>
</mask>
<path d="M26 0V-500H-777.094L-422.676 220.658L26 0ZM40.9999 74L-18.91 570.398L-18.91 570.398L40.9999 74ZM133 65L19.3843 551.92L19.3843 551.92L133 65ZM194.5 161L92.5227 -328.49L92.5227 -328.49L194.5 161ZM239 114L738.281 140.811L739 127.415V114H239ZM239 0H739V-500H239V0ZM-422.676 220.658C-495.295 72.9967 -468.485 -59.2986 -455.665 -106.794C-449.145 -130.946 -442.091 -148.3 -442.007 -148.514C-438.189 -158.185 -447.402 -135.37 -452.699 -120.355C-458.691 -103.37 -475.921 -53.4838 -481.672 12.0506C-487.931 83.3865 -482.458 195.867 -416.401 311.686C-349.965 428.167 -254.043 492.394 -181.474 525.38C-113.836 556.123 -53.3509 566.241 -18.91 570.398L100.91 -422.398C121.814 -419.875 172.147 -412.342 232.324 -384.989C297.431 -355.396 388.583 -295.367 452.246 -183.747C515.531 -72.7884 520.23 34.1681 514.5 99.4618C509.28 158.954 493.885 202.279 490.339 212.329C487.489 220.409 481.334 235.913 488.129 218.703C491.19 210.949 501.139 185.824 509.78 153.815C526.842 90.6067 554.795 -57.7467 474.676 -220.658L-422.676 220.658ZM-18.91 570.398C17.6045 574.805 50.0718 575.038 76.7181 573.722C103.197 572.414 125.765 569.474 142.642 566.765C159.387 564.077 173.33 561.147 181.858 559.28C186.245 558.32 190.097 557.441 192.603 556.866C196.188 556.043 196.031 556.074 197.773 555.677C199.996 555.17 196.683 555.961 191.283 556.982C185.627 558.052 174.82 559.938 160.592 561.384C132.681 564.22 81.715 566.464 19.3842 551.92L246.615 -421.92C169.285 -439.964 102.944 -437.907 59.502 -433.493C18.4206 -429.319 -15.6178 -421.333 -24.5228 -419.302C-26.6874 -418.809 -30.7465 -417.873 -31.0564 -417.802C-32.4454 -417.483 -32.4814 -417.479 -31.9711 -417.591C-31.1972 -417.76 -24.9648 -419.132 -15.8605 -420.593C0.606163 -423.237 44.056 -429.259 100.91 -422.398L-18.91 570.398ZM19.3843 551.92C-28.2398 540.808 -104.286 514.05 -177.783 448.71C-256.217 378.98 -301.099 292.562 -321.314 212.529C-339.384 140.991 -335.65 83.5925 -333.33 59.6727C-331.072 36.384 -326.909 17.8328 -328.937 27.9352C-329.232 29.4077 -331.211 39.0946 -333.038 49.6283C-334.907 60.4068 -338.072 80.0915 -339.958 104.373C-341.795 128.037 -343.289 166.227 -337.504 212.353C-331.646 259.055 -317.065 324.128 -279.63 393.464C-240.243 466.416 -182.637 530.681 -109.669 578.468C-39.6953 624.295 29.5415 645.35 83.4254 654.926C181.342 672.328 262.158 657.64 296.477 650.49L92.5227 -328.49C103.652 -330.809 122.85 -334.255 147.834 -335.907C172.062 -337.508 210.967 -338.076 258.406 -329.646C306.832 -321.039 371.695 -301.651 438.203 -258.094C507.704 -212.577 562.752 -151.185 600.312 -81.6169C635.92 -15.6651 649.405 45.5126 654.722 87.9021C659.967 129.716 658.486 163.176 657.041 181.786C655.549 201.012 653.154 215.317 652.258 220.484C651.405 225.406 650.601 229.249 651.506 224.74C651.88 222.877 658.548 191.806 662.002 156.184C665.517 119.932 669.138 50.3888 648.236 -32.3638C637.331 -75.5357 619.644 -122.802 591.838 -170.348C563.782 -218.321 528.317 -261.595 486.637 -298.65C403.456 -372.599 313.596 -406.292 246.615 -421.92L19.3843 551.92ZM296.477 650.49C479.221 612.418 604.709 496.01 671.399 374.008C701.023 319.815 716.659 269.681 725.269 232.282C729.691 213.075 732.622 195.65 734.593 180.602C735.586 173.026 736.354 165.904 736.95 159.294C737.248 155.983 737.504 152.786 737.724 149.708C737.834 148.168 737.935 146.657 738.027 145.174C738.073 144.433 738.118 143.699 738.16 142.972C738.181 142.608 738.202 142.246 738.222 141.886C738.232 141.706 738.247 141.437 738.251 141.347C738.266 141.079 738.281 140.811 239 114C-260.281 87.1888 -260.266 86.9211 -260.252 86.6535C-260.247 86.5643 -260.232 86.296 -260.222 86.1173C-260.202 85.7595 -260.182 85.4012 -260.161 85.0422C-260.119 84.3243 -260.076 83.6038 -260.031 82.8809C-259.94 81.4352 -259.843 79.9786 -259.738 78.5115C-259.529 75.5785 -259.29 72.5965 -259.017 69.5677C-258.472 63.5206 -257.789 57.2273 -256.935 50.7117C-255.242 37.7843 -252.803 23.4094 -249.236 7.91806C-242.337 -22.0502 -229.866 -62.092 -206.061 -105.641C-181.611 -150.369 -144.147 -200.519 -88.7343 -243.873C-32.0478 -288.222 31.0328 -315.68 92.5227 -328.49L296.477 650.49ZM739 114V0H-261V114H739ZM239 -500H26V500H239V-500Z" fill="#597E61" mask="url(#path-1-inside-1_206_188)"/>
<mask id="path-3-inside-2_206_188" fill="white">
<path d="M5.50008 26C-1.4539 18.0525 -0.166583 6.83333 3.00008 0H3.50011H239V103.5C218 109.5 235.5 128 218 150C212.82 156.513 179.5 159 157.5 155C135.5 151 134.5 132.5 139 124.5C148.563 107.5 146.5 93.5 139 79.5C132.351 67.0886 89.6683 47.5 71.0001 47.5C46.5001 47.5 19.5 42 5.50008 26Z"/>
</mask>
<path d="M3.00008 0V-500H-316.372L-450.655 -210.231L3.00008 0ZM5.50008 26L381.789 -303.251L5.50008 26ZM139 79.5L-301.741 315.608L-301.741 315.608L139 79.5ZM218 150L-173.301 -161.261L-173.302 -161.26L218 150ZM239 103.5L376.361 584.262L739 480.651V103.5H239ZM239 0H739V-500H239V0ZM-450.655 -210.231C-497.161 -109.877 -560.438 138.509 -370.789 355.251L381.789 -303.251C469.763 -202.709 497.418 -88.7616 500.19 -3.7002C502.803 76.5157 484.928 149.222 456.655 210.231L-450.655 -210.231ZM-370.789 355.251C-279.141 459.992 -170.595 503.804 -105.787 522.721C-37.2204 542.735 25.0145 547.5 71.0001 547.5V-452.5C92.4857 -452.5 128.971 -450.485 174.412 -437.221C216.095 -425.054 304.141 -391.992 381.789 -303.251L-370.789 355.251ZM71.0001 547.5C3.43827 547.5 -45.0602 532.699 -55.837 529.449C-74.8715 523.707 -89.9426 517.527 -101.722 512.037C-112.628 506.953 -131.379 497.515 -154.393 481.749C-165.923 473.85 -185.055 459.92 -206.881 439.475C-225.126 422.385 -266.61 381.188 -301.741 315.608L579.742 -156.608C517.103 -273.535 424.058 -334.127 410.784 -343.221C377.314 -366.151 345.479 -382.813 320.737 -394.345C295.122 -406.284 265.464 -418.137 232.968 -427.939C208.73 -435.251 147.896 -452.5 71.0001 -452.5V547.5ZM-301.741 315.608C-321.197 279.289 -351.068 210.687 -354.296 118.344C-357.692 21.2107 -330.306 -61.0432 -296.788 -120.631L574.788 369.631C617.868 293.043 649.005 195.289 645.093 83.406C641.349 -23.6872 606.698 -106.289 579.741 -156.608L-301.741 315.608ZM-296.788 -120.631C-373.108 15.0505 -384.513 179.727 -326.253 326.126C-253.07 510.023 -93.0518 617.642 68.0573 646.935L246.943 -336.935C386.052 -311.642 534.57 -215.273 602.878 -43.626C656.263 90.5233 646.609 241.949 574.788 369.631L-296.788 -120.631ZM68.0573 646.935C130.429 658.275 188.818 658.45 233.834 654.858C257.03 653.006 293.203 648.896 334.794 638.127C355.268 632.825 389.09 622.866 428.02 604.514C458.939 589.938 539.44 549.087 609.302 461.26L-173.302 -161.26C-104.735 -247.459 -26.4083 -286.808 1.6105 -300.016C37.6418 -317.002 67.8383 -325.729 84.1165 -329.944C117.315 -338.541 142.812 -341.058 154.281 -341.973C175.842 -343.694 206.571 -344.275 246.943 -336.935L68.0573 646.935ZM609.302 461.261C663.895 392.629 696.209 318.294 712.632 247.911C726.125 190.083 727.22 133.595 726.464 147.635C726.401 148.814 726.077 154.906 725.343 162.993C724.595 171.24 723.163 184.573 720.305 200.962C714.679 233.219 701.796 287.861 668.761 348.724C633.575 413.548 584.123 469.627 524.243 512.585C467.911 552.998 413.985 573.512 376.361 584.262L101.64 -377.262C58.7654 -365.012 0.792482 -342.608 -58.671 -299.948C-121.681 -254.745 -173.349 -196.063 -210.12 -128.318C-244.742 -64.5324 -258.581 -6.64825 -264.822 29.1354C-270.646 62.5216 -271.886 90.0919 -272.089 93.8651C-273.283 116.03 -272.406 68.6675 -261.21 20.6825C-247.084 -39.8564 -219.144 -103.629 -173.301 -161.261L609.302 461.261ZM739 103.5V0H-261V103.5H739ZM239 -500H3.50011V500H239V-500ZM3.50011 -500H3.00008V500H3.50011V-500Z" fill="#597E61" fill-opacity="0.59" mask="url(#path-3-inside-2_206_188)"/>
</svg>
