<svg width="239" height="164" viewBox="0 0 239 164" fill="none" xmlns="http://www.w3.org/2000/svg">
<path d="M35.7696 47.4359C35.7715 47.4349 35.811 47.4521 35.8823 47.4906C35.8034 47.4562 35.7677 47.4369 35.7696 47.4359ZM41.3146 57.9926C41.3011 58.1584 41.2846 58.2489 41.2797 58.2526C41.2748 58.2564 41.2816 58.1735 41.3146 57.9926ZM44.3398 49.2199C44.5011 48.8164 44.6684 48.3994 44.8426 47.9652C45.2842 46.8645 45.7699 45.6537 46.3144 44.2747C47.8814 40.3055 49.7542 35.3583 51.1936 30.026C51.6206 28.4442 52.027 26.7643 52.3846 25H214V112.698C213.939 113.103 213.832 113.717 213.654 114.491C213.186 116.522 212.306 119.314 210.733 122.192C207.957 127.269 202.551 133.786 189.401 136.525C187.603 136.9 186.004 137.191 184.589 137.417C184.924 135.624 185.327 133.595 185.796 131.257C185.9 130.738 186.01 130.197 186.124 129.636C188.303 118.893 191.964 100.842 187.7 83.9603C185.202 74.0713 180.043 64.3518 171.037 56.3458C162.279 48.5592 151.224 43.5808 138.681 40.654C117.311 35.6677 96.1584 40.3723 81.0676 43.813C80.5044 43.9414 79.9485 44.0683 79.3997 44.1935C63.1684 47.8976 53.1222 50.1902 44.3398 49.2199ZM183.423 147.101C183.422 147.102 183.419 147.073 183.414 147.013C183.422 147.07 183.424 147.1 183.423 147.101Z" stroke="#597E61" stroke-width="50"/>
<path d="M118.538 30H209V87.4631C206.734 89.8973 204.691 92.6915 202.954 95.8919C197.938 105.133 197.448 114.844 197.257 118.627C197.248 118.811 197.239 118.982 197.231 119.137C197.06 122.319 196.934 124.449 196.739 126.002C195.266 126.201 193.572 126.386 191.671 126.537C184.957 127.073 177.563 127.053 171.024 126.517C174.181 117.855 175.699 108.952 175.38 99.8269C174.913 86.4688 170.587 74.9326 165.445 65.3335C160.124 55.4012 150.862 48.4274 145.151 44.5148C138.228 39.7722 130.168 35.377 122.181 31.6543C120.979 31.094 119.764 30.542 118.538 30Z" stroke="#597E61" stroke-opacity="0.59" stroke-width="60"/>
</svg>
